<?xml version="1.0" standalone="no"?>
<!DOCTYPE svg PUBLIC "-//W3C//DTD SVG 20010904//EN"
 "http://www.w3.org/TR/2001/REC-SVG-20010904/DTD/svg10.dtd">
<svg version="1.0" xmlns="http://www.w3.org/2000/svg"
 width="256.000000pt" height="256.000000pt" viewBox="0 0 256.000000 256.000000"
 preserveAspectRatio="xMidYMid meet">

<g transform="translate(0.000000,256.000000) scale(0.100000,-0.100000)"
fill="#000000" stroke="none">
<path d="M526 2389 c-135 -32 -276 -154 -332 -285 l-29 -69 0 -755 0 -755 29
-70 c42 -100 161 -219 261 -261 l70 -29 755 0 755 0 70 29 c100 42 219 161
261 261 l29 70 0 755 0 755 -29 70 c-42 100 -161 219 -261 261 l-70 29 -735 2
c-423 1 -751 -3 -774 -8z m1507 -169 c29 -11 72 -36 95 -55 47 -41 98 -135
108 -201 6 -40 9 -44 34 -44 27 0 29 -3 37 -57 10 -75 11 -1113 0 -1175 l-8
-48 -1014 0 -1013 0 -6 38 c-12 76 -18 858 -7 1027 12 192 16 215 41 215 13 0
19 11 25 48 9 64 60 156 109 198 22 19 62 43 90 53 49 19 81 20 753 20 679 1
704 0 756 -19z"/>
<path d="M873 1638 c-18 -6 -33 -17 -33 -24 0 -16 -26 -19 -35 -4 -8 13 -48
13 -79 -1 -29 -13 -40 -45 -19 -53 9 -4 12 -13 8 -26 -5 -15 -2 -20 14 -21 12
-1 27 -2 34 -3 6 -1 11 5 9 12 -3 17 15 15 21 -2 3 -8 0 -17 -8 -20 -26 -10 1
-64 34 -68 9 -1 -18 -4 -59 -7 l-75 -6 -3 -85 -3 -85 -83 -1 c-103 0 -152 -23
-149 -70 4 -52 63 -76 63 -25 0 27 3 30 44 36 25 4 63 4 85 0 40 -7 41 -8 41
-46 0 -28 4 -39 15 -39 13 0 15 -20 14 -122 -1 -113 -2 -120 -14 -93 -8 17
-14 23 -15 13 0 -23 46 -75 83 -94 38 -20 109 -14 145 13 25 19 26 23 23 101
-2 72 -1 82 14 82 15 0 17 -8 13 -52 -3 -29 -9 -62 -13 -73 -6 -17 -5 -17 5
-5 10 13 12 13 17 0 4 -8 20 -27 36 -42 l29 -28 -31 0 c-27 0 -31 3 -31 28 -1
23 -2 25 -11 9 -5 -9 -7 -22 -4 -27 4 -6 -8 -10 -27 -11 l-33 -1 30 -13 c30
-13 81 -10 99 6 5 4 30 5 56 2 59 -7 112 16 140 62 17 27 20 50 20 143 l0 111
-92 3 c-84 3 -93 5 -96 23 -5 26 -41 65 -70 76 -22 8 -23 13 -20 106 l3 98 72
6 c39 3 78 11 87 18 18 15 21 41 6 41 -6 0 -10 -6 -8 -12 3 -15 -3 -18 -38
-18 -21 0 -24 3 -19 22 6 17 4 20 -10 15 -9 -4 -20 -7 -23 -7 -4 0 0 -5 8 -10
10 -7 -14 -10 -77 -10 -64 0 -92 4 -90 11 1 6 -4 14 -12 16 -9 4 -11 0 -6 -16
5 -18 2 -21 -19 -21 -35 0 -41 3 -38 18 2 6 -3 12 -9 12 -22 0 0 12 28 16 73
10 126 8 118 -6 -11 -18 27 -24 40 -7 13 18 65 23 130 14 22 -3 35 -3 28 0
-13 5 -6 33 9 33 5 0 7 -4 3 -9 -9 -16 12 -22 38 -12 19 7 24 15 20 30 -3 12
-1 21 6 21 18 0 8 34 -14 47 -24 15 -85 17 -85 3 0 -5 -7 -10 -15 -10 -8 0
-15 6 -15 14 0 8 -12 17 -27 20 -16 4 -35 9 -44 12 -16 4 -29 -18 -33 -56 -2
-31 -31 -15 -40 23 -10 39 -13 41 -63 25z m-20 -62 c29 -22 20 -36 -13 -19
-17 8 -28 19 -25 24 8 12 17 11 38 -5z m252 5 c6 -11 -51 -42 -60 -33 -6 6 34
41 47 42 4 0 9 -4 13 -9z m-160 -10 c7 -12 -12 -24 -25 -16 -11 7 -4 25 10 25
5 0 11 -4 15 -9z m60 0 c7 -12 -12 -24 -25 -16 -11 7 -4 25 10 25 5 0 11 -4
15 -9z m-185 -21 c0 -5 -7 -10 -16 -10 -8 0 -12 5 -9 10 3 6 10 10 16 10 5 0
9 -4 9 -10z m305 0 c3 -5 -1 -10 -9 -10 -9 0 -16 5 -16 10 0 6 4 10 9 10 6 0
13 -4 16 -10z m-365 -21 c0 -5 -7 -9 -15 -9 -15 0 -20 12 -9 23 8 8 24 -1 24
-14z m430 0 c0 -5 -7 -9 -15 -9 -15 0 -20 12 -9 23 8 8 24 -1 24 -14z m-347
-20 c-23 -8 -25 -6 -17 15 5 13 9 14 21 4 13 -10 13 -13 -4 -19z m133 20 c3
-6 17 -8 29 -5 13 3 26 2 29 -3 6 -9 -18 -13 -74 -13 -56 0 -80 4 -74 13 3 5
16 6 29 3 12 -3 26 -1 29 5 4 6 11 11 16 11 5 0 12 -5 16 -11z m117 -13 c4
-10 0 -12 -14 -9 -10 3 -16 9 -13 14 8 13 21 11 27 -5z m-303 -216 c0 -5 -4
-10 -10 -10 -5 0 -10 5 -10 10 0 6 5 10 10 10 6 0 10 -4 10 -10z m40 0 c0 -5
-5 -10 -11 -10 -5 0 -7 5 -4 10 3 6 8 10 11 10 2 0 4 -4 4 -10z m40 0 c0 -5
-4 -10 -10 -10 -5 0 -10 5 -10 10 0 6 5 10 10 10 6 0 10 -4 10 -10z m-33 -46
c-3 -3 -12 -4 -19 -1 -8 3 -5 6 6 6 11 1 17 -2 13 -5z m-259 -49 c-3 -3 -9 2
-12 12 -6 14 -5 15 5 6 7 -7 10 -15 7 -18z m50 0 c-3 -3 -9 2 -12 12 -6 14 -5
15 5 6 7 -7 10 -15 7 -18z m-118 6 c0 -6 -4 -13 -10 -16 -5 -3 -10 1 -10 9 0
9 5 16 10 16 6 0 10 -4 10 -9z m34 -7 c3 -8 2 -12 -4 -9 -6 3 -10 10 -10 16 0
14 7 11 14 -7z m239 -21 c-7 -2 -19 -2 -25 0 -7 3 -2 5 12 5 14 0 19 -2 13 -5z
m100 0 c-7 -2 -19 -2 -25 0 -7 3 -2 5 12 5 14 0 19 -2 13 -5z m64 -59 c-3 -3
-12 -4 -19 -1 -8 3 -5 6 6 6 11 1 17 -2 13 -5z m-177 -170 c0 -94 -4 -143 -10
-139 -6 4 -10 63 -10 146 0 86 4 139 10 139 6 0 10 -55 10 -146z m70 -4 c0
-127 -2 -150 -15 -150 -13 0 -15 23 -15 150 0 127 2 150 15 150 13 0 15 -23
15 -150z m358 28 c-3 -93 -5 -100 -31 -122 -31 -27 -102 -31 -130 -7 -41 34
-58 134 -27 165 8 8 10 4 8 -11 -3 -23 -2 -23 35 -23 19 1 20 2 6 13 -15 12
-33 47 -23 47 3 0 16 -11 28 -25 l24 -26 -1 36 c-1 30 -4 35 -19 32 -10 -3
-18 0 -18 7 0 8 23 12 76 12 l76 1 -4 -99z m-300 -57 c-2 -73 -7 -106 -15
-109 -10 -3 -13 26 -13 125 1 116 2 126 16 108 11 -15 14 -43 12 -124z"/>
<path d="M1104 1024 c0 -25 4 -35 18 -39 10 -3 27 -8 38 -11 18 -5 19 -1 17
37 -3 41 -4 43 -37 45 -33 2 -35 1 -36 -32z m59 6 c-7 -26 -43 -48 -43 -27 0
11 30 41 47 46 0 1 -1 -8 -4 -19z"/>
<path d="M1090 970 c0 -5 5 -10 11 -10 5 0 7 5 4 10 -3 6 -8 10 -11 10 -2 0
-4 -4 -4 -10z"/>
<path d="M1146 958 c4 -6 1 -9 -7 -6 -23 8 -35 -15 -34 -62 3 -56 2 -54 20
-37 8 9 20 18 27 20 9 4 6 12 -9 25 -24 21 -30 42 -13 42 5 0 15 -9 22 -20 18
-28 25 -25 26 9 0 21 -5 30 -19 34 -11 3 -17 1 -13 -5z"/>
<path d="M1016 932 c4 -15 7 -28 8 -28 1 -1 13 10 27 25 l25 26 -33 2 c-31 1
-33 0 -27 -25z"/>
<path d="M1056 909 c-15 -17 -27 -31 -25 -33 6 -5 47 -26 52 -26 2 0 4 20 4
45 0 25 -1 45 -1 45 -1 -1 -14 -14 -30 -31z"/>
<path d="M523 1480 c-38 -17 -41 -32 -14 -62 15 -15 26 -19 47 -14 46 12 74
66 34 66 -10 0 -23 6 -27 13 -6 9 -15 9 -40 -3z"/>
<path d="M1355 1480 c-3 -5 -15 -10 -26 -10 -25 0 -25 -25 0 -52 15 -15 27
-19 47 -14 53 14 76 66 29 66 -14 0 -25 5 -25 10 0 6 -4 10 -9 10 -6 0 -13 -4
-16 -10z"/>
<path d="M1106 1375 c-3 -8 -18 -15 -33 -15 -27 -1 -27 -1 -9 -15 25 -19 36
-19 36 -1 0 10 9 13 30 10 34 -6 37 -2 14 20 -19 20 -30 20 -38 1z"/>
<path d="M523 1373 c15 -2 39 -2 55 0 15 2 2 4 -28 4 -30 0 -43 -2 -27 -4z"/>
<path d="M1343 1373 c15 -2 39 -2 55 0 15 2 2 4 -28 4 -30 0 -43 -2 -27 -4z"/>
<path d="M1013 1354 c-7 -7 -13 -16 -13 -19 0 -12 31 -37 38 -31 3 4 0 11 -8
16 -11 7 -11 11 -1 23 15 19 0 30 -16 11z"/>
<path d="M1182 1361 c-11 -7 -11 -9 2 -14 10 -4 16 -1 16 8 0 17 -1 17 -18 6z"/>
<path d="M523 1353 c15 -2 39 -2 55 0 15 2 2 4 -28 4 -30 0 -43 -2 -27 -4z"/>
<path d="M1343 1353 c15 -2 39 -2 55 0 15 2 2 4 -28 4 -30 0 -43 -2 -27 -4z"/>
<path d="M1130 1330 c5 -31 0 -37 -25 -32 -14 2 -25 8 -25 13 0 5 -7 9 -15 9
-21 0 -19 -37 3 -44 9 -2 0 -2 -21 1 -34 5 -39 3 -35 -13 2 -11 8 -17 13 -14
6 3 9 8 8 13 -2 4 2 7 7 7 6 0 10 -5 10 -11 0 -6 11 -4 28 5 15 8 35 17 45 20
23 7 33 34 17 49 -9 9 -11 9 -10 -3z"/>
<path d="M1100 1240 c0 -5 6 -10 13 -10 8 0 7 -4 -3 -10 -13 -8 -12 -10 3 -10
19 0 20 1 11 24 -7 18 -24 22 -24 6z"/>
<path d="M1268 1243 c-24 -4 -28 -9 -28 -35 0 -29 1 -30 41 -23 22 4 60 4 85
0 41 -6 44 -9 44 -36 0 -51 59 -27 63 25 2 23 -4 33 -30 48 -31 19 -119 29
-175 21z m16 -29 c3 -8 2 -12 -4 -9 -6 3 -10 10 -10 16 0 14 7 11 14 -7z m73
-6 c-3 -8 -6 -5 -6 6 -1 11 2 17 5 13 3 -3 4 -12 1 -19z m42 -4 c-14 -18 -24
-11 -15 11 3 9 11 13 16 10 8 -5 7 -11 -1 -21z m51 -16 c0 -18 -2 -20 -9 -8
-6 8 -7 18 -5 22 9 14 14 9 14 -14z"/>
<path d="M1081 1223 c0 -7 -7 -13 -15 -13 -20 0 -28 -27 -10 -34 22 -8 26 -7
20 3 -4 5 -1 11 5 13 6 2 9 13 6 23 -2 11 -5 14 -6 8z"/>
<path d="M1126 1191 c-1 -3 -1 -12 0 -18 1 -7 2 -17 3 -23 1 -13 31 -13 31 -1
0 5 -6 11 -12 14 -10 3 -10 7 -1 19 10 12 10 15 -3 15 -8 0 -16 -3 -18 -6z"/>
<path d="M588 1138 c-2 -17 -20 -31 -70 -56 -60 -28 -68 -35 -68 -60 1 -36 27
-73 39 -53 5 7 7 21 4 30 -3 12 8 21 44 34 26 9 61 28 77 40 26 21 28 27 19
53 -12 36 -40 44 -45 12z"/>
<path d="M1290 1134 c-6 -14 -10 -29 -10 -34 0 -13 49 -44 103 -66 35 -14 47
-24 44 -35 -3 -9 -1 -23 4 -30 12 -20 38 17 39 54 0 26 -7 32 -70 60 -57 25
-70 35 -70 54 0 31 -28 30 -40 -3z"/>
<path d="M540 900 l-45 -7 53 -1 c33 -1 51 2 47 8 -3 6 -7 9 -8 8 -1 0 -22 -4
-47 -8z"/>
<path d="M1343 893 c15 -2 39 -2 55 0 15 2 2 4 -28 4 -30 0 -43 -2 -27 -4z"/>
<path d="M518 873 c17 -2 47 -2 65 0 17 2 3 4 -33 4 -36 0 -50 -2 -32 -4z"/>
<path d="M1338 873 c17 -2 47 -2 65 0 17 2 3 4 -33 4 -36 0 -50 -2 -32 -4z"/>
<path d="M470 842 c-6 -2 -10 -19 -10 -38 l0 -34 90 0 90 0 0 35 c0 21 -5 35
-12 36 -83 3 -150 3 -158 1z m58 -19 c-10 -2 -26 -2 -35 0 -10 3 -2 5 17 5 19
0 27 -2 18 -5z m80 0 c-10 -2 -26 -2 -35 0 -10 3 -2 5 17 5 19 0 27 -2 18 -5z
m-71 -29 c-3 -3 -12 -4 -19 -1 -8 3 -5 6 6 6 11 1 17 -2 13 -5z m50 0 c-3 -3
-12 -4 -19 -1 -8 3 -5 6 6 6 11 1 17 -2 13 -5z m40 0 c-3 -3 -12 -4 -19 -1 -8
3 -5 6 6 6 11 1 17 -2 13 -5z"/>
<path d="M1297 842 c-12 -2 -17 -14 -17 -38 l0 -34 90 0 90 0 0 35 c0 19 -3
35 -7 36 -44 3 -143 3 -156 1z m51 -19 c-10 -2 -26 -2 -35 0 -10 3 -2 5 17 5
19 0 27 -2 18 -5z m80 0 c-10 -2 -26 -2 -35 0 -10 3 -2 5 17 5 19 0 27 -2 18
-5z m-111 -29 c-3 -3 -12 -4 -19 -1 -8 3 -5 6 6 6 11 1 17 -2 13 -5z m40 0
c-3 -3 -12 -4 -19 -1 -8 3 -5 6 6 6 11 1 17 -2 13 -5z m50 0 c-3 -3 -12 -4
-19 -1 -8 3 -5 6 6 6 11 1 17 -2 13 -5z m40 0 c-3 -3 -12 -4 -19 -1 -8 3 -5 6
6 6 11 1 17 -2 13 -5z"/>
</g>
</svg>
